Coordinates
version=1
nRows=23
nColumns=23
inDegrees=yes

Units are S.I. units (second, meters, Newtons, ...)
If the header above contains a line with 'inDegrees', this indicates whether rotational values are in degrees (yes) or radians (no).

endheader
time	pelvis_tilt	pelvis_list	pelvis_rotation	pelvis_tx	pelvis_ty	pelvis_tz	hip_flexion_r	hip_adduction_r	hip_rotation_r	knee_angle_r	knee_angle_r_beta	ankle_angle_r	subtalar_angle_r	mtp_angle_r	hip_flexion_l	hip_adduction_l	hip_rotation_l	knee_angle_l	knee_angle_l_beta	ankle_angle_l	subtalar_angle_l	mtp_angle_l
      7.50000000	      1.90070657	      3.39870986	      3.77236198	      1.99523091	      0.86799894	      1.01070723	    -21.26713312	     -3.17022612	    -13.96599711	     56.06317987	      0.97848708	    -15.27750846	    -16.25017781	      0.00000000	     26.04254944	      7.14001593	      0.87215921	     21.35967897	      0.37279673	     -3.54454497	      0.36726960	      0.00000000
      7.50666667	      2.33144191	      3.75295747	      4.35706436	      1.99479819	      0.86512786	      1.00959569	    -19.94493389	     -3.84863181	    -14.41969354	     61.09099632	      1.06623903	    -15.57450828	    -17.76825376	      0.00000000	     25.48788237	      7.72808773	      0.21300304	     23.07757794	      0.40277972	     -3.54119357	     -0.79048203	      0.00000000
      7.51333333	      2.57242167	      4.04086133	      5.07968376	      1.99419621	      0.86161053	      1.00827599	    -18.36593713	     -4.49974668	    -14.99151648	     66.05380301	      1.15285635	    -15.77749778	    -18.90437935	      0.00000000	     25.17979865	      8.34788790	      0.00189020	     25.26367563	      0.44093432	     -3.18288930	     -2.26523099	      0.00000000
      7.52000000	      2.88505766	      4.37901603	      5.85435633	      1.99349947	      0.85782675	      1.00690771	    -16.87149846	     -5.26674911	    -15.68239741	     70.83350162	      1.23627782	    -15.95462990	    -19.88587230	      0.00000000	     24.71923197	      9.04847016	      0.08082722	     27.66820287	      0.48290124	     -2.30706097	     -3.85326266	      0.00000000
      7.52666667	      3.88213459	      4.74188432	      6.60411871	      1.99273093	      0.85465267	      1.00568161	    -16.18021545	     -5.98851008	    -16.39169399	     75.17677581	      1.31208226	    -16.13619320	    -20.84798730	      0.00000000	     23.38328816	      9.65450346	      0.25712411	     30.14083810	      0.52605686	     -0.87697333	     -5.19294807	      0.00000000
      7.53333333	      3.43735402	      5.01834894	      7.51857094	      1.99162053	      0.84936821	      1.00403375	    -13.72505780	     -6.97747957	    -17.14417119	     79.84608262	      1.39357704	    -15.85228864	    -21.22932682	      0.00000000	     23.63401289	     10.51437888	      1.01886879	     32.83702472	      0.57311420	      1.03761873	     -6.75812524	      0.00000000
      7.54000000	      3.66195557	      5.32894393	      8.31223340	      1.99036083	      0.84492071	      1.00268363	    -12.00142108	     -7.93401901	    -17.75980141	     84.06153332	      1.46715053	    -15.49441575	    -21.56081802	      0.00000000	     22.97960104	     11.23096525	      1.68228954	     35.36988635	      0.61732097	      3.27127168	     -7.95193189	      0.00000000
      7.54666667	      3.83330551	      5.62263354	      9.06239229	      1.98888386	      0.84048085	      1.00142881	    -10.13158142	     -8.94867079	    -18.25743168	     88.05082813	      1.53677686	    -15.01443914	    -21.74240527	      0.00000000	     22.28176821	     11.88165536	      2.33572763	     37.81348711	      0.65996985	      5.76502990	     -8.72727577	      0.00000000
      7.55333333	      3.94870505	      5.89706165	      9.66428286	      1.98715246	      0.83622323	      1.00047567	     -8.03495942	     -9.98845821	    -18.48074111	     91.82022936	      1.60256532	    -14.38464375	    -21.69302579	      0.00000000	     21.53990747	     12.40326880	      2.87023024	     40.07912134	      0.69951263	      8.33509537	     -9.14799750	      0.00000000
      7.56000000	      4.00116458	      6.13937141	     10.08968155	      1.98522198	      0.83228407	      0.99982565	     -5.67061538	    -11.02798588	    -18.39449358	     95.33308457	      1.66387621	    -13.67723125	    -21.44506701	      0.00000000	     20.76013992	     12.75530401	      3.22156529	     42.12798007	      0.73527196	     10.91805124	     -9.16328693	      0.00000000
      7.56666667	      4.00777784	      6.37014880	     10.38559837	      1.98315638	      0.82879701	      0.99941073	     -3.07876859	    -12.05964097	    -18.05213910	     98.53571689	      1.71977269	    -12.93432739	    -20.98780364	      0.00000000	     19.89654579	     12.98249413	      3.46666900	     43.90482031	      0.76628367	     13.42635590	     -8.83028672	      0.00000000
      7.57333333	      3.97782160	      6.56378659	     10.48103588	      1.98101939	      0.82585998	      0.99933315	     -0.22213260	    -13.00799396	    -17.36986116	    101.40036295	      1.76977020	    -12.19484418	    -20.33702800	      0.00000000	     18.93413053	     13.01542789	      3.51375955	     45.36861905	      0.79183178	     15.79717003	     -8.16653903	      0.00000000
      7.58000000	      3.93958452	      6.70014237	     10.41296697	      1.97887470	      0.82354767	      0.99953009	      2.84322677	    -13.79786322	    -16.40862849	    103.86937828	      1.81286264	    -11.49340521	    -19.52675963	      0.00000000	     17.83492594	     12.84279074	      3.39470915	     46.51048939	      0.81176118	     18.01577976	     -7.20872542	      0.00000000
      7.58666667	      3.92257591	      6.80124631	     10.19282235	      1.97678951	      0.82193861	      0.99992455	      6.03680070	    -14.43126212	    -15.22010221	    105.90178526	      1.84833484	    -10.81394449	    -18.56403869	      0.00000000	     16.52030363	     12.51685037	      3.14376002	     47.25826830	      0.82481238	     20.00629704	     -6.05210701	      0.00000000
      7.59333333	      3.97122062	      6.84728092	      9.87247134	      1.97484176	      0.82106010	      1.00044753	      9.23569830	    -14.85363665	    -13.92155476	    107.44690287	      1.87530223	    -10.18641442	    -17.54196227	      0.00000000	     14.94246736	     12.05094958	      2.82491510	     47.62849191	      0.83127400	     21.72144703	     -4.84025336	      0.00000000
      7.60000000	      3.95015195	      6.81487495	      9.51467558	      1.97300623	      0.82069291	      1.00096225	     12.53763391	    -15.07411139	    -12.59103029	    108.52912407	      1.89419055	     -9.60888229	    -16.49233775	      0.00000000	     13.28047539	     11.46788970	      2.42277092	     47.68188047	      0.83220581	     23.22623438	     -3.39080705	      0.00000000
      7.60666667	      4.14415070	      6.74817958	      9.12476508	      1.97138515	      0.82129433	      1.00138649	     15.50724720	    -15.11720078	    -11.34095180	    109.04569045	      1.90320633	     -9.09664610	    -15.53596410	      0.00000000	     11.11995210	     10.86520594	      2.14515474	     47.23270572	      0.82436623	     24.36363421	     -2.43956468	      0.00000000
      7.61333333	      4.17959033	      6.63956129	      8.71882143	      1.97010219	      0.82230475	      1.00177032	     18.53371600	    -15.01321105	    -10.14732166	    109.08717231	      1.90393033	     -8.51065158	    -14.55057091	      0.00000000	      8.93158135	     10.22506279	      1.75262695	     46.40882567	      0.80998681	     25.12051995	     -1.20000950	      0.00000000
      7.62000000	      4.16440796	      6.44646761	      8.38792055	      1.96901245	      0.82375845	      1.00192772	     21.42663774	    -14.75493125	     -9.14069004	    108.65311981	      1.89635468	     -7.94266239	    -13.75346433	      0.00000000	      6.65906558	      9.55051783	      1.41610566	     45.30255482	      0.79067874	     25.61295583	      0.11105097	      0.00000000
      7.62666667	      4.15586451	      6.19899078	      8.07519959	      1.96821103	      0.82575295	      1.00197261	     24.08463956	    -14.37333561	     -8.31311129	    107.74166746	      1.88044684	     -7.41661948	    -13.16484521	      0.00000000	      4.20334463	      8.87255315	      1.13460127	     43.82767756	      0.76493728	     25.75084169	      1.18683652	      0.00000000
      7.63333333	      4.14246517	      5.87979277	      7.84252238	      1.96772244	      0.82827616	      1.00179198	     26.45547578	    -13.87598767	     -7.69690507	    106.32574922	      1.85573440	     -6.92989795	    -12.82279128	      0.00000000	      1.62630413	      8.17649926	      0.94187374	     42.06189184	      0.73411850	     25.55283293	      2.19199246	      0.00000000
      7.64000000	      4.06891358	      5.47865171	      7.66939433	      1.96756812	      0.83108900	      1.00151527	     28.61432336	    -13.32907959	     -7.35198259	    104.52421507	      1.82429170	     -6.52182893	    -12.76183508	      0.00000000	     -1.00801316	      7.42295941	      0.77992148	     39.99374125	      0.69802246	     24.89535457	      3.05557896	      0.00000000
      7.64666667	      4.48259993	      4.79350625	      7.73289302	      1.96790403	      0.83507464	      1.00088564	     29.72086934	    -12.53273116	     -7.60718712	    102.05488233	      1.78119371	     -6.24978543	    -13.08514615	      0.00000000	     -4.25425020	      6.31757813	      0.89544727	     37.64746190	      0.65707217	     23.93393808	      3.78890796	      0.00000000
